PathFileType	4	(X/Y/Z)	C:\Users\WrightLab\Desktop\Jo\P1_boxCal2.trc
DataRate	CameraRate	NumFrames	NumMarkers	Units	OrigDataRate	OrigDataStartFrame	OrigNumFrames
100.00	100.00	       9	19	mm	100.00	619	       825
Frame#	Time	Headset_Front			Headset_Back			Headset_Left			Headset_Right			Left_Shoulder			Right_Shoulder			Sternum			C7			Left Elbow			Right Elbow			Left Wrist			Right Wrist			Left ASIS			Right ASIS			S2			Left Knee			Right Knee			Left Ankle			Right Ankle			
		X1	Y1	Z1	X2	Y2	Z2	X3	Y3	Z3	X4	Y4	Z4	X5	Y5	Z5	X6	Y6	Z6	X7	Y7	Z7	X8	Y8	Z8	X9	Y9	Z9	X10	Y10	Z10	X11	Y11	Z11	X12	Y12	Z12	X13	Y13	Z13	X14	Y14	Z14	X15	Y15	Z15	X16	Y16	Z16	X17	Y17	Z17	X18	Y18	Z18	X19	Y19	Z19	

619	6.180	-17.82241	1422.62219	1887.93079				140.87227	1501.90430	1777.47302	-85.88053	1464.90576	1762.60376	253.22714	1321.07434	1707.19861	-112.91756	1325.11731	1648.80933	30.16437	1215.02258	1799.10718	100.30391	1334.54993	1563.20667	357.04596	1011.86700	1693.43518	-207.49716	1068.78076	1561.29736	435.40152	853.80969	1789.68750	-301.22644	844.49799	1594.92261	-70.07036	942.73126	1786.05725	125.43801	932.26129	1828.43872	102.53535	949.13403	1511.74353	-144.16608	523.35455	1773.26807	230.46548	495.77353	1741.85791	-88.22697	217.42622	1579.40906	246.95038	139.18356	1675.64880	
620	6.190	-19.49277	1422.72375	1894.12329	76.18288	1580.97815	1640.05957	139.64349	1501.70276	1784.81372	-87.23838	1465.46472	1770.09766	251.95418	1321.94348	1714.94580	-113.65942	1324.86890	1655.26514	28.34443	1215.21570	1805.14453	100.58257	1335.06274	1570.21399	356.10803	1013.16040	1704.38989	-205.88695	1068.41321	1565.05591	434.52917	855.64056	1804.63806	-298.05402	843.19208	1597.44629	-71.34470	943.78827	1791.53625	123.60262	932.41772	1834.65955	102.99798	949.24762	1517.95129	-146.57344	525.61475	1780.00256	229.04694	495.53030	1744.17004	-91.20885	211.95815	1598.49524	246.90515	139.35687	1675.88745	
621	6.200	-21.21958	1422.64868	1901.30737	74.87055	1579.57361	1644.29761	137.99403	1501.56970	1791.77454	-88.40437	1465.56775	1775.73035	250.70915	1322.45398	1722.20032	-114.92650	1324.67786	1660.34314	26.32891	1215.79175	1811.04407	100.55267	1335.13147	1577.89771	355.44833	1012.90747	1713.87463	-204.50754	1067.95154	1567.91382	432.86890	857.09888	1816.83313	-294.90381	841.86139	1597.77954	-72.79659	944.23517	1796.79468	122.00247	933.61096	1841.21509	104.10910	949.11926	1524.96423	-147.73303	528.64825	1786.94910	226.67621	495.53140	1748.32349	-94.58849	206.29347	1616.69629	246.94179	139.77890	1676.46069	
622	6.210	-23.48841	1422.15125	1907.15833				136.44273	1500.79675	1798.16504	-89.95942	1464.72620	1780.33850	249.27116	1323.06372	1730.67493	-116.13481	1324.68762	1664.24194	24.37905	1215.93176	1817.95081	100.14935	1335.20728	1583.79150	355.02335	1013.92822	1725.85754	-202.17505	1066.47302	1573.97229	431.05450	858.23456	1829.47266	-291.70389	840.26361	1600.44739	-74.20837	944.59601	1801.75256	120.54372	933.92731	1845.80176	103.59666	949.17932	1530.81104	-149.60580	530.12695	1794.44031	225.19141	496.12967	1751.76843	-97.95812	199.64259	1636.75024	248.51576	139.09969	1679.27173	
623	6.220	-25.77500	1421.88452	1912.53369	72.51717	1580.11584	1659.18140	134.82628	1500.93835	1806.10217	-91.65920	1464.87109	1787.58801	247.26172	1323.28101	1738.68567	-117.03758	1324.15698	1670.51074	22.17307	1215.72815	1823.89929	99.18705	1335.57947	1590.52295	354.17511	1015.26251	1738.55957	-202.02640	1066.63672	1575.18115	428.85397	860.10364	1843.16907	-288.50330	838.33899	1600.95544	-75.57801	944.63684	1806.27649	119.00031	934.54883	1852.49524	104.42313	949.27686	1536.07007	-151.19608	531.91516	1799.55261	223.49362	495.61319	1755.70837	-103.92367	193.57564	1656.73303	248.63557	139.41556	1679.37439	
624	6.230	-27.82953	1421.69666	1919.64392	70.63270	1578.71973	1664.78711	132.69814	1499.95825	1811.53345	-93.29797	1464.74097	1794.47400	245.84132	1323.61523	1746.44641	-118.42258	1323.48340	1675.95679	20.23942	1215.30835	1829.37036	98.49276	1335.67139	1598.32410	352.95212	1014.81421	1747.44043	-200.99304	1065.63916	1579.71252	426.53549	860.78583	1855.52661	-285.91373	836.58551	1604.02039	-77.76981	944.78741	1812.65991	117.29527	935.00952	1859.58533	103.93039	949.36328	1541.96924	-152.82433	534.16083	1808.81653	222.71329	495.20438	1758.48621	-109.16917	186.74129	1675.23694	249.26743	139.71283	1681.05310	
625	6.240	-30.13631	1421.44446	1926.81946				130.76044	1499.83350	1820.39429	-95.71642	1463.93286	1800.40234	243.95903	1323.73303	1754.31372	-120.06927	1323.07947	1681.15125	17.90225	1214.88721	1835.58887	98.03542	1335.16919	1604.03345	351.69662	1015.36743	1758.53381	-200.28563	1064.55151	1583.70715	424.07846	861.52100	1868.37976	-283.22794	835.12140	1606.20947	-79.37013	944.58118	1817.70532	114.92735	934.73676	1865.54358	104.28523	949.09387	1548.85535	-154.41507	535.04974	1814.53333	221.87816	494.62918	1762.76611	-115.18681	180.42003	1698.44678	249.37108	139.99953	1681.15027	
626	6.250	-32.92236	1420.91516	1932.82202	67.55238	1578.31384	1679.09216	128.47595	1499.63025	1827.02502	-97.92464	1463.68555	1805.75537	242.12793	1323.71497	1761.86377	-121.46587	1322.33801	1686.07788	15.51768	1214.65869	1842.28918	96.68474	1335.57751	1609.93323	349.48505	1015.49609	1768.79724	-199.50604	1063.70166	1587.49329	421.01208	862.31989	1880.61523	-281.13690	833.54852	1607.46191	-81.00829	943.42200	1822.11926	112.68504	933.82550	1871.66016	104.16628	949.36438	1555.47607	-155.68979	536.05627	1819.71411	221.05585	494.26123	1767.15137	-122.31818	175.37988	1718.21265	249.43842	140.34962	1681.31543	
627	6.260	-35.42549	1419.83875	1938.16101				126.18170	1498.70264	1832.46252	-100.06597	1462.88184	1812.66223	240.00012	1323.53735	1769.94971	-123.39466	1321.70886	1691.46143	13.23037	1213.62158	1847.94824	95.57443	1335.13269	1618.08423	348.16293	1014.85718	1779.48376	-199.17780	1062.51587	1592.33777	417.77658	862.45660	1891.88757	-278.67404	830.98499	1610.46606	-83.21741	943.29138	1827.82544	110.56998	934.33160	1879.34558	102.85691	949.14276	1560.92676	-157.28239	536.96265	1825.68054	219.45981	493.06754	1769.93713	-129.97499	170.60086	1737.96802	249.29370	140.57295	1681.56848	
